<svg width="117" height="130" viewBox="0 0 117 130" fill="none" xmlns="http://www.w3.org/2000/svg">
<path d="M0 24.2188V58.125C0 90.4244 19.1009 114.156 56.3496 128.83C57.4908 129.279 58.7592 129.279 59.9004 128.83C97.1488 114.156 116.25 90.4244 116.25 58.125V24.2188C116.25 21.5436 114.081 19.375 111.406 19.375C94.2051 19.375 77.4483 13.2817 61.0312 0.96875C59.3088 -0.322917 56.9412 -0.322917 55.2188 0.96875C38.8015 13.2817 22.0449 19.375 4.84375 19.375C2.16864 19.375 0 21.5436 0 24.2188ZM71.01 58.125C71.01 63.5332 67.6859 68.1645 62.9688 70.0878V85.5729C62.9688 88.248 60.8 90.4167 58.125 90.4167C55.45 90.4167 53.2812 88.248 53.2812 85.5729V70.111C48.5344 68.2019 45.1827 63.5552 45.1827 58.125C45.1827 50.9929 50.9646 45.2113 58.0966 45.2113C65.2285 45.2113 71.01 50.9929 71.01 58.125Z" fill="white"/>
</svg>
