<svg width="1137" height="1086" viewBox="0 0 1137 1086" fill="none" xmlns="http://www.w3.org/2000/svg">
<path d="M949.363 443.662C942.295 447.364 935.032 450.838 928.208 454.829C919.845 459.731 912.214 465.604 903.581 470.112C879.346 482.728 854.841 494.95 830.287 507.089C823.366 510.502 815.223 512.363 808.84 516.333C805.391 518.464 802.872 523.613 803.093 527.253C803.215 529.217 810.283 532.733 813.731 532.361C828.796 530.789 843.714 528.059 859.854 527.273C833.784 538.917 808.033 551.18 781.474 561.976C767.485 567.663 751.809 570.33 737.331 575.273C733.418 576.617 731.046 581.229 727.989 584.352C731.951 586.978 735.644 591.445 739.924 591.88C750.513 592.976 761.396 592.231 769.882 592.231C746.942 604.35 718.891 611.568 689.911 616.262C670.273 619.447 669.418 620.295 680.251 634.213C680.496 634.523 678.466 636.922 677.317 637.005C668.072 637.811 658.682 637.832 649.56 639.135C645.671 639.693 639.655 642.444 639.313 644.719C638.848 647.676 642.101 652.37 645.402 654.232C662.643 663.91 680.985 672.203 697.811 682.357C711.824 690.795 724.101 701.239 737.405 710.565C748.263 718.197 759.684 725.249 770.444 732.963C775.653 736.706 779.909 741.4 784.531 745.702C820.138 778.708 848.287 815.602 865.968 857.915C867.582 861.761 868.512 865.835 869.441 869.847C870.591 874.873 871.373 879.981 872.327 885.047C868.243 880.973 864.574 876.527 860.001 872.908C845.059 861.079 829.994 849.332 814.44 838.103C812.166 836.469 805.881 836.531 803.362 838.061C801.087 839.468 800.207 844.079 800.769 846.995C808.546 887.219 810.283 927.381 798.373 967.211C791.868 988.967 783.846 1010.41 776.411 1031.96C775.898 1033.49 774.553 1034.82 773.452 1036.43C768.243 1011.8 764.013 987.541 757.703 963.696C754.132 950.15 747.651 937.08 741.268 924.216C739.777 921.197 733.589 918.984 729.138 918.281C727.524 918.033 723.098 923.141 722.682 926.078C717.546 962.434 700.892 995.379 680.105 1026.83C667.021 1046.67 651.589 1065.38 637.16 1084.59C636.329 1085.69 635.155 1086.6 636.28 1085.5C638.408 1059.2 640.755 1030.97 643.005 1002.74C643.715 993.91 645.255 984.997 644.277 976.29C643.886 972.713 637.821 969.61 634.348 966.281C630.851 969.093 626.253 971.41 624.077 974.822C607.129 1001.33 588.224 1026.63 561.935 1047.33C555.625 1052.31 547.897 1056.03 540.903 1060.27C544.449 1050.57 548.802 1040.38 551.859 1029.92C555.258 1018.33 558.144 1006.57 559.905 994.737C560.467 990.994 556.701 986.796 554.94 982.805C549.927 985.493 543.446 987.272 540.218 991.056C533.175 999.287 527.965 1008.61 521.68 1017.34C518.379 1021.91 514.955 1022.86 509.257 1018.48C494.143 1006.9 474.603 1003.71 455.356 1002.12C450.49 1001.71 443.544 1008.68 439.534 1013.45C431.561 1022.92 424.982 1033.22 418.061 1042.86C418.868 1023.98 420.116 1006.17 420.262 988.368C420.36 976.973 415.714 974.015 402.092 974.822C396.858 975.132 391.625 975.711 386.416 976.373C383.994 976.683 381.647 977.428 379.25 977.965C380.424 975.877 380.938 973.064 382.87 971.782C392.261 965.619 402.141 959.973 411.629 953.914C415.811 951.246 421.901 948.434 422.708 944.959C423.295 942.374 417.45 937.535 413.244 935.653C406.714 932.716 408.23 930.317 412.339 927.463C426.768 917.495 438.922 919.729 445.819 934.102C448.998 940.699 450.636 947.854 452.764 954.803C455.797 964.688 461.788 967.832 470.568 961.586C485.706 950.812 500.942 939.52 512.95 926.347C547.334 888.584 557.753 845.01 550.929 798.272C549.756 790.206 546.968 782.079 543.201 774.593C541.465 771.16 535.522 769.236 531.487 766.651C529.164 770.043 524.664 773.517 524.86 776.826C526.327 804.228 522.194 830.782 509.501 856.074C505.784 863.457 500.624 870.55 494.706 876.817C492.896 878.74 485.437 878.926 482.184 877.437C462.522 868.317 442.053 861.782 419.553 859.9C409.967 859.093 400.527 856.322 391.013 856.281C386.685 856.26 380.962 859.879 378.247 863.229C369.688 873.694 362.253 884.82 353.743 896.567C355.797 880.084 358.756 865.649 359.147 851.152C359.637 832.229 348.949 826.811 327.844 833.656C325.35 834.463 322.513 834.587 319.847 835.042C320.874 832.602 321.045 829.148 323.1 827.886C331.146 822.861 340.072 818.849 348.093 813.803C352.275 811.156 355.234 807.123 358.756 803.731C355.161 801.105 351.346 798.665 348.093 795.769C347.017 794.797 346.699 791.447 347.14 791.282C354.965 788.283 362.791 785.098 371.057 783.423C372.354 783.154 376.34 789.958 377.954 793.826C381.549 802.387 384.679 811.094 387.492 819.862C389.864 827.328 397.078 829.996 403.266 827.038C418.404 819.821 435.058 814.113 443.398 799.037C452.251 783.051 452.299 767.871 445.378 751.472C439.949 738.629 428.675 730.481 417.89 721.526C393.85 701.569 362.645 693.856 331.782 686.493C279.52 674.044 225.888 669.287 171.694 673.072C137.04 675.491 102.533 680.02 70.9853 693.483C59.858 698.24 49.024 704.092 39.7553 711.062C34.3017 715.157 30.4132 722.188 29.1171 728.371C27.6742 735.341 23.8347 735.362 20.2886 731.68C13.0252 724.173 2.53373 715.942 1.80006 707.484C-0.229766 684.384 -3.92263 661.863 13.2209 638.783C35.5979 608.652 63.5263 587.475 102.876 577.445C127.943 571.054 154.062 567.663 179.569 562.41C248.29 548.223 313.513 526.963 369.248 489.18C388.225 476.317 404.513 460.351 420.531 444.696C439.778 425.897 451.786 403.48 459.783 379.573C462.057 372.769 466.753 368.736 475.239 367.02C504.537 361.084 534.104 355.769 562.815 348.159C590.377 340.859 617.571 332.07 643.886 321.998C693.017 303.158 742.027 283.967 789.862 262.914C827.475 246.369 863.205 226.743 899.84 208.627C915.198 201.037 931.045 194.13 946.159 186.23C963.449 177.213 980.642 167.948 997.076 157.877C1039.78 131.695 1082.06 104.997 1124.51 78.505C1125.17 78.0914 1125.79 77.595 1126.54 77.3675C1129.72 76.3749 1132.93 75.4442 1136.13 74.5136C1134.88 76.9746 1134.2 79.8699 1132.27 81.8552C1126.18 88.0801 1119.4 93.8293 1113.31 100.033C1109.16 104.252 1105.68 108.947 1101.89 113.434C1093.48 123.361 1085.34 133.474 1076.51 143.132C1071.4 148.716 1065.16 153.555 1059.49 158.787C1054.47 163.399 1049.51 168.031 1044.59 172.705C1027.16 189.291 1009.89 206.001 992.307 222.483C981.106 232.989 969.44 243.122 957.995 253.442C953.153 257.785 947.504 261.714 943.811 266.678C941.463 269.842 942.05 274.557 941.317 278.59C946.721 279.065 952.786 281.051 957.408 279.644C963.082 277.886 967.24 272.902 972.596 270.028C1001.75 254.476 1031.51 239.71 1060.15 223.517C1075.31 214.955 1088.61 204.015 1104.61 195.64C1086.73 213.694 1068.07 231.231 1051.12 249.885C1023.73 280.017 992.356 306.798 958.631 331.718C949.803 338.232 940.779 344.933 930.58 349.607C921.581 353.743 916.494 359.347 920.236 366.503C924.516 374.651 934.151 370.391 940.632 367.95C965.748 358.499 990.497 348.304 1015.39 338.439C1017.91 337.447 1020.58 336.743 1023.19 335.957C1026.94 334.841 1030.7 333.807 1034.47 332.731C1031.7 335.606 1029.38 338.915 1026.13 341.293C1014 350.165 1000.89 358.148 989.397 367.557C953.178 397.151 913.364 422.692 870.444 444.861C869.759 445.213 869.197 445.875 868.487 446.061C859.952 448.294 851.833 452.472 857.189 460.331C859.341 463.495 870.933 464.384 877.022 462.874C900.842 456.96 924.198 449.659 947.748 442.876C948.213 443.145 948.776 443.393 949.363 443.662ZM16.1556 681.447C16.1556 686.948 15.8376 692.47 16.3023 697.95C16.4979 700.349 18.2342 702.645 19.2858 705.002C21.9271 703.431 24.8374 702.086 27.1851 700.246C38.875 691.043 50.4426 681.695 62.0346 672.389C64.6024 670.342 67.0724 668.191 69.5668 666.102C66.2898 664.696 63.0127 663.31 59.7601 661.883C57.7302 660.994 55.7249 660.064 53.7196 659.154C60.3471 655.204 69.0288 646.807 73.2107 648.193C83.7756 651.667 89.0825 646.911 95.8323 643.167C105.981 637.563 116.18 631.979 126.084 626.085C129.239 624.203 131.562 621.349 134.252 618.951C130.706 618.123 127.16 617.255 123.59 616.469C121.438 615.993 119.261 615.6 117.109 615.187C118.381 613.574 119.237 611.361 121.022 610.451C133.861 603.916 146.994 597.794 159.76 591.176C163.159 589.419 165.605 586.337 168.466 583.876C164.064 583.359 159.075 581.436 155.333 582.532C127.845 590.494 98.8404 596.388 73.6999 608.114C40.7824 623.376 14.1747 645.194 16.1556 681.447Z" fill="url(#paint0_linear_73_52)"/>
<path d="M806.839 114.736C800.896 126.772 797.375 137.029 791.138 145.901C771.916 173.345 752.303 200.622 731.564 227.217C721.88 239.626 708.771 250.09 698.084 261.982C693.829 266.717 691.897 272.922 688.889 278.464C695.516 279.663 702.119 280.946 708.771 281.98C710.703 282.29 712.807 281.876 715.619 283.469C703.416 288.122 691.261 292.878 679.009 297.428C650.469 308.016 622.565 320.218 593.145 328.656C546.41 342.057 500.09 357.671 449.712 359.552C446.386 359.677 441.225 363.378 440.345 366.191C431.59 393.737 420.878 420.602 400.238 443.557C378.007 468.27 351.668 489.344 319.118 504.42C305.472 510.748 292.168 517.552 277.225 524.852C292.852 506.467 308.773 490.936 320.439 473.378C344.43 437.27 357.856 398.804 345.946 356.719C344.723 352.397 343.378 347.847 343.769 343.525C344.038 340.588 346.386 336.514 349.247 335.191C376.344 322.824 404.615 312.153 430.881 298.648C466.488 280.346 501.069 260.555 535.16 240.267C552.524 229.947 568.151 217.456 583.949 205.399C614.47 182.134 644.966 158.806 674.68 134.796C688.326 123.773 700.09 111.096 712.709 99.1634C721.342 91.0359 730.023 82.9498 738.632 74.8016C756.289 58.0297 774.166 41.4232 791.432 24.3617C799.6 16.2963 806.521 7.3416 816.425 0C801.19 29.0976 787.005 58.6294 770.375 87.1479C755.58 112.564 737.776 136.74 722.173 161.826C719.923 165.465 722.418 171.214 722.736 175.971C728.776 175.289 737.018 176.488 740.466 173.593C762.158 155.394 782.848 136.244 806.839 114.736Z" fill="url(#paint1_linear_73_52)"/>
<defs>
<linearGradient id="paint0_linear_73_52" x1="837.723" y1="50.7917" x2="403.704" y2="1004.34" gradientUnits="userSpaceOnUse">
<stop stop-color="#CDCDCD"/>
<stop offset="0.177039" stop-color="#B1B1B1" stop-opacity="0.8"/>
<stop offset="0.405695" stop-color="#8C8C8C" stop-opacity="0.44"/>
<stop offset="1" stop-opacity="0"/>
</linearGradient>
<linearGradient id="paint1_linear_73_52" x1="674.803" y1="-12.3091" x2="436.561" y2="466.429" gradientUnits="userSpaceOnUse">
<stop stop-color="#CDCDCD"/>
<stop offset="0.177039" stop-color="#B1B1B1" stop-opacity="0.8"/>
<stop offset="0.405695" stop-color="#8C8C8C" stop-opacity="0.44"/>
<stop offset="1" stop-opacity="0"/>
</linearGradient>
</defs>
</svg>
